# xmcd
# 
# Track frame offsets:
#     150
#     18654
#     33269
#     61581
#     79581
#     100949
#     117161
#     142026
#     162056
#     185276
#     206669
#     230311
# 
# Disc length: 3324
# 
# Revision: 0
# Processed by: cddbd v1.5.2PL0 Copyright (c) Steve Scherf et al.
# Submitted via: fre:ac v1.0.17
# 
DISCID=910cfa0c
DTITLE=Bonnie Raitt - Silver Lining
DYEAR=2002
DGENRE=Blues
TTITLE0=Fool's Game
TTITLE1=I Can't Help You Now
TTITLE2=Silver Lining
TTITLE3=Time of Our Lives
TTITLE4=Gnawin' on It
TTITLE5=Monkey Business
TTITLE6=Wherever You May Be
TTITLE7=Valley of Pain
TTITLE8=Hear Me Lord
TTITLE9=No Gettin' Over You
TTITLE10=Back Around
TTITLE11=Wounded Heart
EXTD=
EXTT0=
EXTT1=
EXTT2=
EXTT3=
EXTT4=
EXTT5=
EXTT6=
EXTT7=
EXTT8=
EXTT9=
EXTT10=
EXTT11=
PLAYORDER=
